<svg viewBox="0 0 250 350" xmlns="http://www.w3.org/2000/svg" width="250" height="350"><rect x="4" y="4" width="242" height="342" rx="20" ry="20" fill="#ffffff" stroke="#cccccc" stroke-width="3"/><g><text x="32" y="62" font-family="'Arial','Helvetica',sans-serif" font-weight="700" font-size="44" fill="#1a1a1a" text-anchor="middle">10</text><g transform="translate(18,70) scale(0.30)"><circle cx="50" cy="28" r="18" fill="#1a1a1a"/><circle cx="31" cy="54" r="18" fill="#1a1a1a"/><circle cx="69" cy="54" r="18" fill="#1a1a1a"/><path d="M50 50 C48 70 44 84 36 92 L64 92 C56 84 52 70 50 50 Z" fill="#1a1a1a"/></g></g><g transform="rotate(180 125 175)"><text x="32" y="62" font-family="'Arial','Helvetica',sans-serif" font-weight="700" font-size="44" fill="#1a1a1a" text-anchor="middle">10</text><g transform="translate(18,70) scale(0.30)"><circle cx="50" cy="28" r="18" fill="#1a1a1a"/><circle cx="31" cy="54" r="18" fill="#1a1a1a"/><circle cx="69" cy="54" r="18" fill="#1a1a1a"/><path d="M50 50 C48 70 44 84 36 92 L64 92 C56 84 52 70 50 50 Z" fill="#1a1a1a"/></g></g><g transform="translate(65,115) scale(1.2)"><circle cx="50" cy="28" r="18" fill="#1a1a1a"/><circle cx="31" cy="54" r="18" fill="#1a1a1a"/><circle cx="69" cy="54" r="18" fill="#1a1a1a"/><path d="M50 50 C48 70 44 84 36 92 L64 92 C56 84 52 70 50 50 Z" fill="#1a1a1a"/></g></svg>
