<svg viewBox="0 0 250 350" xmlns="http://www.w3.org/2000/svg" width="250" height="350"><rect x="4" y="4" width="242" height="342" rx="20" ry="20" fill="#ffffff" stroke="#cccccc" stroke-width="3"/><g><text x="32" y="62" font-family="'Arial','Helvetica',sans-serif" font-weight="700" font-size="44" fill="#d40000" text-anchor="middle">10</text><g transform="translate(18,70) scale(0.30)"><path d="M50 86 C18 58 8 39 8 27 C8 13 23 7 35 14 C42 18 47 23 50 29 C53 23 58 18 65 14 C77 7 92 13 92 27 C92 39 82 58 50 86 Z" fill="#d40000"/></g></g><g transform="rotate(180 125 175)"><text x="32" y="62" font-family="'Arial','Helvetica',sans-serif" font-weight="700" font-size="44" fill="#d40000" text-anchor="middle">10</text><g transform="translate(18,70) scale(0.30)"><path d="M50 86 C18 58 8 39 8 27 C8 13 23 7 35 14 C42 18 47 23 50 29 C53 23 58 18 65 14 C77 7 92 13 92 27 C92 39 82 58 50 86 Z" fill="#d40000"/></g></g><g transform="translate(65,115) scale(1.2)"><path d="M50 86 C18 58 8 39 8 27 C8 13 23 7 35 14 C42 18 47 23 50 29 C53 23 58 18 65 14 C77 7 92 13 92 27 C92 39 82 58 50 86 Z" fill="#d40000"/></g></svg>
