<svg viewBox="0 0 250 350" xmlns="http://www.w3.org/2000/svg" width="250" height="350"><rect x="4" y="4" width="242" height="342" rx="20" ry="20" fill="#ffffff" stroke="#cccccc" stroke-width="3"/><g><text x="32" y="62" font-family="'Arial','Helvetica',sans-serif" font-weight="700" font-size="56" fill="#1a1a1a" text-anchor="middle">A</text><g transform="translate(18,70) scale(0.30)"><path d="M50 14 C82 42 92 61 92 73 C92 87 77 93 65 86 C58 82 53 77 50 71 C47 77 42 82 35 86 C23 93 8 87 8 73 C8 61 18 42 50 14 Z" fill="#1a1a1a"/><path d="M50 64 C48 78 44 86 36 92 L64 92 C56 86 52 78 50 64 Z" fill="#1a1a1a"/></g></g><g transform="rotate(180 125 175)"><text x="32" y="62" font-family="'Arial','Helvetica',sans-serif" font-weight="700" font-size="56" fill="#1a1a1a" text-anchor="middle">A</text><g transform="translate(18,70) scale(0.30)"><path d="M50 14 C82 42 92 61 92 73 C92 87 77 93 65 86 C58 82 53 77 50 71 C47 77 42 82 35 86 C23 93 8 87 8 73 C8 61 18 42 50 14 Z" fill="#1a1a1a"/><path d="M50 64 C48 78 44 86 36 92 L64 92 C56 86 52 78 50 64 Z" fill="#1a1a1a"/></g></g><g transform="translate(65,115) scale(1.2)"><path d="M50 14 C82 42 92 61 92 73 C92 87 77 93 65 86 C58 82 53 77 50 71 C47 77 42 82 35 86 C23 93 8 87 8 73 C8 61 18 42 50 14 Z" fill="#1a1a1a"/><path d="M50 64 C48 78 44 86 36 92 L64 92 C56 86 52 78 50 64 Z" fill="#1a1a1a"/></g></svg>
