<svg viewBox="0 0 120 120" xmlns="http://www.w3.org/2000/svg" width="120" height="120"><circle cx="60" cy="60" r="58" fill="#fde7e2" stroke="#ffffff" stroke-width="4"/><circle cx="60" cy="62" r="34" fill="#ffd9a0" stroke="#3a2e2a" stroke-width="2"/><circle cx="42" cy="70" r="6" fill="#ff9d8a" opacity="0.7"/><circle cx="78" cy="70" r="6" fill="#ff9d8a" opacity="0.7"/><circle cx="49" cy="60" r="4.5" fill="#3a2e2a"/><circle cx="71" cy="60" r="4.5" fill="#3a2e2a"/><path d="M50 74 C55 82 65 82 70 74" fill="none" stroke="#3a2e2a" stroke-width="3" stroke-linecap="round"/><path d="M22 56 C22 28 44 16 60 16 C76 16 98 28 98 56 C98 44 86 34 60 34 C34 34 22 44 22 56 Z" fill="#e94f37"/><path d="M22 56 C18 70 20 84 24 92 L34 92 C28 78 28 64 30 54 Z" fill="#e94f37"/><path d="M98 56 C102 70 100 84 96 92 L86 92 C92 78 92 64 90 54 Z" fill="#e94f37"/></svg>
